# ProBuilder 4.5.2
# https://unity3d.com/unity/features/worldbuilding/probuilder
# 10/28/2022 6:13:27 PM

mtllib ./Cone_(3).mtl
o Cone (3)

g Cone (3)
v 0 0 0
v 0.04894346 0 0.309017
v 1 2 0
v 1 0 0
v 0.190983 0 0.5877852
v 0.4122147 0 0.809017
v 0.6909831 0 0.9510565
v 1 0 1
v 1.309017 0 0.9510565
v 1.587785 0 0.809017
v 1.809017 0 0.5877852
v 1.951056 0 0.309017
v 2 0 -8.742278E-08
v 1.951056 0 -0.309017
v 1.809017 0 -0.5877851
v 1.587785 0 -0.8090168
v 1.309017 0 -0.9510565
v 1 0 -1
v 0.6909829 0 -0.9510565
v 0.4122149 0 -0.8090171
v 0.1909831 0 -0.5877853
v 0.04894346 0 -0.3090169

vt 0 0
vt 0.3128689 1.089682E-09
vt 0.1564344 2.230589
vt 0.04894346 0.309017
vt 1 0
vt 0.190983 0.5877852
vt 0.4122147 0.809017
vt 0.6909831 0.9510565
vt 1 1
vt 1.309017 0.9510565
vt 1.587785 0.809017
vt 1.809017 0.5877852
vt 1.951056 0.309017
vt 2 -8.742278E-08
vt 1.951056 -0.309017
vt 1.809017 -0.5877851
vt 1.587785 -0.8090168
vt 1.309017 -0.9510565
vt 1 -1
vt 0.6909829 -0.9510565
vt 0.4122149 -0.8090171
vt 0.1909831 -0.5877853
vt 0.04894346 -0.3090169

vn -0.8855852 0.4427926 0.1402628
vn 0 -1 0
vn -0.7988979 0.4427926 0.4070589
vn -0.6340091 0.4427926 0.6340089
vn -0.4070587 0.4427926 0.7988979
vn -0.1402629 0.4427926 0.8855851
vn 0.1402629 0.4427926 0.8855851
vn 0.4070588 0.4427926 0.7988979
vn 0.634009 0.4427926 0.634009
vn 0.798898 0.4427926 0.4070587
vn 0.8855851 0.4427926 0.1402629
vn 0.8855851 0.4427926 -0.1402631
vn 0.798898 0.4427926 -0.4070587
vn 0.6340092 0.4427926 -0.6340088
vn 0.407059 0.4427926 -0.7988979
vn 0.140263 0.4427926 -0.8855851
vn -0.1402629 0.4427926 -0.8855851
vn -0.4070588 0.4427926 -0.7988979
vn -0.6340089 0.4427925 -0.6340091
vn -0.7988979 0.4427926 -0.4070589
vn -0.8855851 0.4427926 -0.1402629

usemtl Trigger
f 1/1/1 2/2/1 3/3/1
f 4/5/2 2/4/2 1/1/2
f 2/1/3 5/2/3 3/3/3
f 4/5/2 5/6/2 2/4/2
f 5/1/4 6/2/4 3/3/4
f 4/5/2 6/7/2 5/6/2
f 6/1/5 7/2/5 3/3/5
f 4/5/2 7/8/2 6/7/2
f 7/1/6 8/2/6 3/3/6
f 4/5/2 8/9/2 7/8/2
f 8/1/7 9/2/7 3/3/7
f 4/5/2 9/10/2 8/9/2
f 9/1/8 10/2/8 3/3/8
f 4/5/2 10/11/2 9/10/2
f 10/1/9 11/2/9 3/3/9
f 4/5/2 11/12/2 10/11/2
f 11/1/10 12/2/10 3/3/10
f 4/5/2 12/13/2 11/12/2
f 12/1/11 13/2/11 3/3/11
f 4/5/2 13/14/2 12/13/2
f 13/1/12 14/2/12 3/3/12
f 4/5/2 14/15/2 13/14/2
f 14/1/13 15/2/13 3/3/13
f 4/5/2 15/16/2 14/15/2
f 15/1/14 16/2/14 3/3/14
f 4/5/2 16/17/2 15/16/2
f 16/1/15 17/2/15 3/3/15
f 4/5/2 17/18/2 16/17/2
f 17/1/16 18/2/16 3/3/16
f 4/5/2 18/19/2 17/18/2
f 18/1/17 19/2/17 3/3/17
f 4/5/2 19/20/2 18/19/2
f 19/1/18 20/2/18 3/3/18
f 4/5/2 20/21/2 19/20/2
f 20/1/19 21/2/19 3/3/19
f 4/5/2 21/22/2 20/21/2
f 21/1/20 22/2/20 3/3/20
f 4/5/2 22/23/2 21/22/2
f 22/1/21 1/2/21 3/3/21
f 4/5/2 1/1/2 22/23/2

